<?xml version="1.0" encoding="utf-8"?>
<!-- Generator: Adobe Illustrator 23.0.5, SVG Export Plug-In . SVG Version: 6.00 Build 0)  -->
<svg version="1.1" id="Слой_1" xmlns="http://www.w3.org/2000/svg" xmlns:xlink="http://www.w3.org/1999/xlink" x="0px" y="0px"
	 viewBox="0 0 100 100" style="enable-background:new 0 0 100 100;" xml:space="preserve">
<style type="text/css">
	.st0{fill:#FFFFFF;}
</style>
<g>
	<path class="st0" d="M49.1,75.2C37.1,60.5,25.2,45.7,13.2,31c12.4-10,24.7-20,37-30c3,3.8,6.1,7.5,9.1,11.3
		c-7.4,6-14.7,11.9-22.1,17.9c1.5,1.8,2.9,3.6,4.4,5.4c6.8-5.5,13.5-10.9,20.3-16.4c2.9,3.6,5.8,7.2,8.8,10.9
		C64,35.5,57.3,41,50.5,46.5c1.5,1.8,2.9,3.6,4.4,5.4C62.2,45.9,69.6,40,77,34c3,3.8,6.1,7.5,9.1,11.3
		C73.8,55.3,61.4,65.3,49.1,75.2z"/>
	<path class="st0" d="M0.2,86.6c3,0,5.9,0,8.8,0c0,0.7,0,1.4,0,2.1c-1.9,0-3.8,0-5.8,0c0,0.9,0,1.7,0,2.6c1.8,0,3.6,0,5.5,0
		c0,0.7,0,1.4,0,2.2c-1.8,0-3.6,0-5.5,0c0,1,0,2,0,3c2,0,3.9,0,5.9,0c0,0.7,0,1.4,0,2.2c-3,0-5.9,0-8.9,0
		C0.2,94.7,0.2,90.7,0.2,86.6z"/>
	<path class="st0" d="M59.2,95c0,0.9,0,1.6,0,2.4c0,0.2-0.2,0.4-0.3,0.5c-2.5,1.2-5.2,1.5-7.8,0.4c-2.3-1-3.6-2.7-3.7-5.3
		c-0.1-2.7,1.2-4.6,3.5-5.7c2.5-1.2,5.2-1.1,7.7-0.1c0.4,0.2,0.6,0.4,0.5,0.8c0,0.7,0,1.4,0,2c-1.1-0.3-2.2-0.8-3.3-0.9
		c-0.8-0.1-1.6-0.1-2.4,0.1c-1.8,0.4-2.9,1.8-2.9,3.5c0,1.7,1.3,3,3.1,3.4c1.4,0.3,2.7,0.1,4-0.5C58,95.5,58.5,95.3,59.2,95z"/>
	<path class="st0" d="M10.4,86.6c1,0,2,0,3,0c0.2,0,0.4,0.3,0.5,0.5c1,2.1,1.9,4.2,3,6.4c0.1-0.3,0.2-0.5,0.3-0.6
		c0.8-1.9,1.7-3.8,2.5-5.7c0.2-0.4,0.4-0.6,0.9-0.6c0.8,0,1.7,0,2.6,0c-0.1,0.3-0.2,0.5-0.3,0.7c-1.7,3.7-3.4,7.3-5,11
		c-0.2,0.4-0.4,0.7-0.9,0.6c-0.5,0-0.8-0.1-1-0.6c-1.7-3.7-3.5-7.4-5.3-11C10.6,87.1,10.6,86.9,10.4,86.6z"/>
	<path class="st0" d="M34.2,96.6c2.2,0,4.2,0,6.3,0c0,0.7,0,1.4,0,2.2c-3.1,0-6.1,0-9.2,0c0-4,0-8,0-12.1c1,0,1.9,0,3,0
		C34.2,89.9,34.2,93.2,34.2,96.6z"/>
	<path class="st0" d="M28,98.8c-1,0-2,0-2.9,0c0-4,0-8.1,0-12.1c1,0,1.9,0,2.9,0C28,90.7,28,94.7,28,98.8z"/>
	<path class="st0" d="M72.7,87.8C70.4,86,66.4,86,64,87.7c-3.9,2.7-3.5,8.2,0.7,10.4c1.1,0.6,2.4,0.8,3.6,0.9
		c0.8-0.1,1.6-0.2,2.3-0.4c2.4-0.7,4.1-2.3,4.6-4.8C75.7,91.3,74.7,89.3,72.7,87.8z M68.4,96.3c-2.3,0-3.9-1.4-3.9-3.6
		c0-2.2,1.5-3.7,3.9-3.7c2.3,0,3.8,1.4,3.8,3.6C72.2,94.9,70.7,96.3,68.4,96.3z"/>
	<path class="st0" d="M85.4,93.1c1.1-0.6,1.9-1.4,2-2.7c0.1-2.1-1.5-3.7-3.7-3.8c-1.8,0-3.6,0-5.5,0c-0.1,0-0.2,0-0.2,0.1
		c0,4.1,0,8.1,0,12.1c1,0,2,0,3,0c0-1.6,0-3.2,0-4.8c1.2-0.2,2.1,0.1,2.6,1.2c0.5,1.1,1,2.1,1.5,3.2c0.1,0.2,0.4,0.5,0.5,0.5
		c1,0,1.9,0,3.1,0C87.5,96.8,87.1,94.6,85.4,93.1z M83.3,91.5c-0.7,0.1-1.5,0.1-2.3,0.2c0-1,0-1.9,0-3c0.8,0,1.5,0,2.2,0.1
		c0.7,0.1,1,0.6,1,1.3C84.2,90.8,83.9,91.4,83.3,91.5z"/>
	<path class="st0" d="M96.7,86.7c-0.7-0.1-1.5-0.1-2.2-0.1c-1.4,0-2.7,0-4.1,0c0,4.1,0,8.1,0,12.1c1,0,2,0,3,0c0-1.6,0-3.2,0-4.9
		c1,0,1.9,0,2.8,0c2-0.1,3.5-1.5,3.6-3.3C99.9,88.6,98.7,87,96.7,86.7z M95.7,91.5c-0.7,0.1-1.5,0.2-2.3,0.2c0-1,0-1.9,0-3
		c0.8,0.1,1.5,0.1,2.2,0.2c0.6,0.1,1,0.5,1,1.2C96.7,90.8,96.4,91.4,95.7,91.5z"/>
</g>
</svg>
