<?xml version="1.0" encoding="utf-8"?>
<!-- Generator: Adobe Illustrator 23.0.5, SVG Export Plug-In . SVG Version: 6.00 Build 0)  -->
<svg version="1.1" id="Слой_1" xmlns="http://www.w3.org/2000/svg" xmlns:xlink="http://www.w3.org/1999/xlink" x="0px" y="0px"
	 viewBox="0 0 100 100" style="enable-background:new 0 0 100 100;" xml:space="preserve">
<style type="text/css">
	.st0{fill:#FFFFFF;}
</style>
<path class="st0" d="M22.1,86.5c0.3,0.8,0.9,1.1,1.8,1.1c17.8,0,35.6,0,53.3-0.1c0.9,0,1.7,0,2.6,0c1.2,0,1.5-0.3,1.5-1.5
	c0-1,0-2,0-3c0-0.3,0.1-0.5,0.1-0.8c0,5.9,0,11.9,0,17.8c-1.8,0-3.6,0-5.5,0c0.7-0.3,1.2-0.7,1.4-1.4c0.8-2.3,1.6-4.6,2.4-7
	c-0.4,0-0.8,0-1.1,0c-0.4,0-0.6,0.1-0.7,0.6c-0.3,1.1-0.6,2.2-0.9,3.3c0,0.2-0.2,0.3-0.3,0.5c-0.1-0.1-0.3-0.2-0.4-0.4
	c-0.5-1.1-0.9-2.3-1.4-3.5c-0.1-0.2-0.2-0.4-0.4-0.4c-0.4,0-0.9,0-1.4,0c0.1,0.2,0.1,0.3,0.2,0.4c0.6,1.5,1.2,3,1.9,4.5
	c0.2,0.5,0.3,1.3,1.2,1c-0.4,1.1-0.7,1.2-1.7,0.8c-0.2,0.3-0.5,0.7-0.8,1.1c0.4,0.2,0.8,0.4,1.2,0.6c-17.6,0-35.2,0-52.9,0
	C22.1,95.6,22.1,91.1,22.1,86.5z M25,96.4c-0.5,0-0.9,0-1.3,0c0,0.5,0,0.9,0,1.3c1.8,0,3.6,0,5.4,0c0-0.4,0-0.9,0-1.3
	c-0.8,0-1.6,0-2.4,0c0-1.1,0-2.2,0-3.3c0.8,0,1.6,0,2.5,0c0-0.5,0-0.8,0-1.3c-0.4,0-0.8,0-1.2,0c-0.4,0-0.8,0-1.4,0
	c0.3-0.4,0.3-0.8,0.6-1c0.7-0.4,1.4-0.1,2.2,0.1c0.2-0.4,0.3-0.8,0.4-1.2c-1.1-0.5-2.2-0.7-3.3-0.3c-1,0.4-1.3,1.3-1.3,2.3
	c-0.5,0-0.9,0-1.4,0.1c0,0.4,0,0.8,0,1.3c0.5,0,0.9,0,1.3,0C25,94.2,25,95.2,25,96.4z M43.9,94.8c0-2-1.1-3.2-3.1-3.2
	c-1.9,0-3.2,1.2-3.2,3.1c0,1.9,1.2,3.2,3,3.2C42.6,97.9,43.8,96.8,43.9,94.8z M65,95.2c0.4-1.5,0-2.7-1-3.3c-1.2-0.7-3.1-0.4-4,0.6
	c-0.9,1-1.1,2.9-0.3,4c0.7,1.1,2.2,1.6,3.7,1.3c0.6-0.1,1.1-0.4,1.7-0.6c-0.2-0.4-0.4-0.7-0.5-1c-2,0.9-3.6,0.5-3.7-0.9
	C62.2,95.2,63.6,95.2,65,95.2z M72.5,96.8c-0.3-0.4-0.5-0.7-0.7-1c-0.5,0.2-0.9,0.5-1.3,0.6c-0.9,0.3-1.6-0.1-1.8-1.1
	c-0.1-0.7,0-1.5,0-2.3c0.5,0,1,0,1.5,0c0.5,0,1,0,1.5,0c0-0.5,0-0.9,0-1.3c-0.5,0-1,0-1.5,0c-0.5,0-1,0-1.6,0c0-0.7,0-1.2,0-1.8
	c-0.5,0.2-1.1,0.2-1.4,0.5c-0.2,0.3-0.2,0.9-0.2,1.4c-0.4,0-0.7,0-1.1,0c0,0.5,0,0.9,0,1.3c0.4,0,0.7,0,1.1,0c0.1,1,0.1,1.9,0.2,2.8
	c0.1,0.9,0.6,1.6,1.5,1.8C70.1,98.1,71.3,97.8,72.5,96.8z M36.2,92.3c-0.5-0.2-1-0.5-1.5-0.6c-1-0.3-2-0.3-2.9,0.2
	c-0.6,0.3-1,0.8-1,1.5c0,0.7,0.3,1.1,0.9,1.4c0.4,0.2,0.7,0.3,1.1,0.4c0.5,0.2,1,0.3,1.5,0.5c0.1,0.1,0.3,0.3,0.3,0.4
	c0,0.1-0.2,0.4-0.4,0.4c-0.3,0.1-0.7,0.1-1.1,0c-0.6-0.2-1.3-0.5-1.9-0.7c-0.2,0.3-0.4,0.7-0.6,1c1.4,1,2.8,1.2,4.4,0.8
	c0.7-0.2,1.2-0.8,1.2-1.6c0-0.7-0.3-1.2-1.1-1.6c-0.3-0.2-0.7-0.3-1.1-0.4c-0.5-0.1-0.9-0.2-1.4-0.4c-0.1-0.1-0.3-0.3-0.3-0.4
	c0-0.2,0.2-0.3,0.4-0.4c0.1-0.1,0.4-0.1,0.5-0.1c0.7,0.1,1.5,0.3,2.3,0.5C35.8,93.1,36,92.7,36.2,92.3z M50.5,94.1
	c0-0.6,0-1.1,0-1.7c0-0.2-0.2-0.4-0.4-0.5c-0.9-0.4-1.8-0.4-2.7-0.2c-1.2,0.3-2.1,1.1-2.3,2.4c-0.2,1.3,0,2.4,1.1,3.2
	c1.1,0.9,3.3,0.7,4.5-0.2c-0.2-0.3-0.3-0.7-0.5-1.1c-1.1,0.5-2.3,0.9-3.2-0.2c-0.5-0.6-0.5-1.5-0.1-2.1c0.5-0.7,1.3-0.9,2.2-0.6
	c0,0.3,0,0.6,0.1,1C49.7,94.1,50,94.1,50.5,94.1z M55.8,91.8c-1.3,0-2.4,0-3.6,0c0,0.4,0,0.8,0,1.3c0.7,0,1.4,0,2,0
	c0,1.1,0,2.2,0,3.4c-0.7,0-1.4,0-2,0c0,0.5,0,0.8,0,1.3c1.9,0,3.9,0,5.8,0c0-0.4,0-0.9,0-1.3c-0.7,0-1.4,0-2.2,0c0-0.8,0-1.6,0-2.3
	C55.8,93.3,55.8,92.5,55.8,91.8z M55,89.2c-0.6,0-1,0.4-1,0.9c0,0.5,0.4,0.9,1.1,0.9c0.6,0,1.1-0.4,1-0.9
	C56.1,89.5,55.6,89.2,55,89.2z"/>
<path class="st0" d="M81.4,6.5c0-0.4,0-0.8-0.1-1.1c-0.1-0.4-0.1-0.8-0.2-1.2c-0.2-0.7-0.6-1.1-1.5-1c-0.4,0.1-0.9-0.1-1.4-0.1
	c1.1,0,2.1,0,3.2,0C81.4,4.3,81.4,5.4,81.4,6.5z"/>
<path class="st0" d="M23.6,3.1c-0.8,0.2-1.3,0.6-1.5,1.5c0-0.5,0-1,0-1.5C22.6,3.1,23.1,3.1,23.6,3.1z"/>
<path class="st0" d="M71.3,45c2.8,1.2,4.8,3,5.6,5.9c1,3.4-0.4,7.2-3.1,9c-1.5,1-3.3,1.4-5.1,1.4c-2.7,0-5.5-0.2-8.2-0.3
	c-2.4,0-4.8,0-7.3,0.1c-1.2,0-2.4,0.3-3.7,0.4c-0.9,0-1.9-0.2-2.8-0.2c-2.9,0-5.8,0-8.7,0c-2,0-4.1,0.1-6.1-0.5
	c-3.1-0.8-5.1-2.7-5.7-6c-0.3-1.9,0.1-3.6,1-5.2c1.1-2,2.7-3.5,4.1-5.2c0.6,0.2,0.7,0.6,0.5,1.2c-0.3,1.3-0.7,2.5-0.4,3.9
	c0.5,2.5,3,4.2,5.4,3.5c2.5-0.7,5-1.8,7.4-2.6c0.5-0.2,1.1-0.4,1.6-0.5c1.2-0.2,2.1,0.4,2.9,1.3c0.3,0.4,0.7,0.8,1.1,1.1
	c1.1,0.8,2.3,0.8,3.4,0.1c0.4-0.3,0.8-0.6,1.1-1c1.4-1.5,3.1-2,5.1-1.3c1.3,0.5,2.6,1.2,4,1.6c1.3,0.5,2.7,1,4,1.2
	c3.4,0.4,5.4-2.1,4.5-5.5C71.8,46.6,71.5,45.8,71.3,45z"/>
<path class="st0" d="M25,57.4c2.6,2.3,4.6,4.9,4.8,8.4c0.5,5.9,3.2,10.6,7.7,14.4c1.5,1.3,2.8,2.7,4.4,4.2c-0.4,0.2-0.7,0.4-0.9,0.4
	c-4.6,0-9.1,0-13.7-0.1c-1.7,0-2.3-0.6-2.3-2.4c0-5.3,0-10.5,0-15.8c0-2.7,0-5.5,0.1-8.2C24.9,58.1,25,57.8,25,57.4z"/>
<path class="st0" d="M78.6,56.7c0,9.3,0,18.6,0,27.9c-0.2,0-0.4,0-0.7,0c-5,0-9.9,0-14.9,0c-0.4,0-0.7,0-0.9-0.6
	c1.4-1.3,2.8-2.7,4.3-4.1c2.2-2.1,4.3-4.3,5.7-7c0.8-1.7,1.1-3.5,1.4-5.3c0.7-4,2.4-7.6,5-10.7C78.4,56.8,78.5,56.8,78.6,56.7z"/>
<path class="st0" d="M78.5,18.3c-1.6-2-3.3-3.7-5.2-5.3c-4-3.2-8.6-5-13.7-5.9c-4.1-0.7-8.2-0.8-12.3-0.5
	c-6.9,0.6-13.3,2.7-18.6,7.2c-1.2,1-2.2,2.1-3.3,3.2c-0.2,0.2-0.4,0.4-0.7,0.7c0-0.3,0-0.4,0-0.6c0-3.2,0-6.3,0-9.5
	c0-1.2,0.5-1.6,1.7-1.6c5.5,0,11,0,16.5,0c11.5,0,23.1,0.1,34.6,0.1c0.5,0,0.9,0,0.9,0.6C78.5,10.6,78.5,14.3,78.5,18.3z"/>
<path class="st0" d="M62.8,61.6c0.4,0.8,0.2,1.3-0.3,1.9c-2.5,3-5.7,4.5-9.6,4.7c-3.9,0.2-7.5-0.8-10.5-3.5c-0.5-0.5-1-1.1-1.4-1.7
	c-0.3-0.4-0.2-0.6,0.2-0.8c1.5-0.6,3.1-0.6,4.7-0.3c1.6,0.3,3.3,0.7,4.9,0.9c2.5,0.3,4.9-0.2,7.3-0.5C59.7,62.1,61.3,61.9,62.8,61.6
	z"/>
<path class="st0" d="M30.4,30.3c-0.2-0.3-0.5-0.5-0.5-0.6c0.2-0.5,0.4-1.2,0.8-1.4c2.3-1.6,4.8-3,7.7-3.2c2.4-0.2,4.5,0.6,6.5,1.8
	c1.1,0.7,2.3,1.4,3.4,2.1c0.4,0.3,0.8,0.6,1.1,0.9c0.9,1.1,0.9,2.7-0.2,3.7c-0.6,0.5-1.3,0.6-1.9,0.4c-0.7-0.3-1.4-0.6-1.9-1.1
	c-1.8-1.4-3.6-2.8-5.4-4.2c-1.7-1.3-3.4-1.4-5.3-0.3C33.2,29.1,31.8,29.6,30.4,30.3z"/>
<path class="st0" d="M65.3,25c2.3,0.1,4.4,1,6.3,2.3c0.8,0.5,1.4,1.1,1.7,2c0,0.2,0,0.5-0.1,0.6C73,30,72.7,30,72.6,29.9
	c-1.3-0.5-2.5-1.1-3.7-1.7c-1.9-1-3.6-0.8-5.3,0.6c-1.9,1.5-3.9,3-5.8,4.5c-0.3,0.2-0.6,0.4-1,0.6c-1,0.5-1.8,0.3-2.4-0.7
	c0,0,0,0,0,0c-1.3-1.9-1-2.8,0.9-3.9c2-1.1,3.9-2.3,5.9-3.4C62.4,25.3,63.8,25,65.3,25z"/>
<path class="st0" d="M69.6,41.4c-3.8-2.1-7.3-0.9-10.8,1.1c-0.4-1.3-0.9-2.4-1.2-3.6c-0.1-0.3,0-0.8,0.2-1.1
	c1.4-2.3,4.9-3.4,7.4-2.5c0.8,0.3,1.5,0.8,1.9,1.5c0.9,1.5,1.8,3,2.6,4.6C69.7,41.3,69.6,41.4,69.6,41.4z"/>
<path class="st0" d="M44.5,42.4c-3.4-2.5-7-2.1-10.8-0.9c0.1-0.2,0.1-0.3,0.2-0.5c0.5-1.1,1.1-2.1,1.6-3.2c1.4-2.8,5-3.7,7.6-1.9
	c0.4,0.2,0.8,0.4,1.2,0.5c1.7,0.5,2.2,2,1.3,3.4C45.1,40.7,44.9,41.5,44.5,42.4z"/>
<path class="st0" d="M25.3,34.9c-0.4-0.7-0.2-1.2,0.3-1.6c0.7-0.5,1.4-1,2.1-1.6c-0.7-0.1-1.3-0.3-1.9-0.4c-0.4-0.1-0.8-0.1-0.9-0.7
	c-0.1-0.6,0-1.1,0.5-1.4c0.6-0.3,1.2-0.4,1.7-0.6c0.1,0,0.2,0,0.3-0.1c-0.6-0.3-1.1-0.4-1.6-0.7c-1.1-0.7-1.5-2.5-0.9-3.6
	c0.1-0.1,0.3-0.2,0.4-0.2c1.4,0,2.6,0.8,3,2.2c0.4,1.5,0.6,3.1,0.7,4.7c0.1,1.1-0.4,2-1.4,2.6C27,34,26.1,34.4,25.3,34.9z"/>
<path class="st0" d="M76.4,28.2c0.6,0.2,1.2,0.3,1.7,0.5c0.2,0.1,0.4,0.3,0.4,0.5c0.1,0.6,0,1.2,0,1.8c-0.9,0.1-1.7,0.2-2.7,0.3
	c0.3,0.2,0.5,0.4,0.7,0.5c0.4,0.2,0.8,0.3,1.2,0.5c1,0.5,1.2,1.2,0.6,2.1c-2.6-0.4-4.3-2.3-3.9-4.8c0.2-1.3,0.4-2.5,0.8-3.8
	c0.4-1.1,1.3-1.8,2.5-2.1c0.4-0.1,0.6-0.1,0.7,0.4c0.5,2.2,0.3,2.6-1.7,3.6C76.6,28.1,76.6,28.1,76.4,28.2z"/>
<path class="st0" d="M58.6,48c-0.2-0.3-0.4-0.5-0.5-0.7c-0.9-1.1-1.7-2.3-2.7-3.3c-1.2-1.4-1.6-2.9-1.4-4.8c0.1,0.2,0.1,0.2,0.2,0.3
	c0.2,2.2,1.4,3.8,3.2,5.1c0.5,0.4,0.9,0.9,1.3,1.4C58.9,46.6,58.9,47.3,58.6,48z"/>
<path class="st0" d="M46.8,47.9c0-0.5-0.1-1.1,0-1.5c0.2-0.6,0.6-1.2,1.1-1.5c2-1.4,3.4-3.2,3.6-5.7c0.3,1.8-0.1,3.3-1.3,4.7
	c-1,1.2-2,2.4-2.9,3.7c-0.1,0.1-0.2,0.3-0.3,0.4C46.9,47.9,46.9,47.9,46.8,47.9z"/>
<path class="st0" d="M72.4,38.8c-0.1-0.8-0.3-1.5-0.4-2.2c-0.1-0.7-0.3-1.4-0.4-2.1C73.3,35.2,73.8,37.4,72.4,38.8z"/>
<path class="st0" d="M31.9,34.4c-0.3,1.5-0.6,2.9-0.8,4.3C29.9,37.8,29.7,35.7,31.9,34.4z"/>
<path class="st0" d="M42.3,94.6c0,1.3-0.6,1.9-1.6,1.9c-0.6,0-1.1-0.2-1.2-0.8c-0.2-0.6-0.2-1.3-0.1-1.9c0.1-0.7,0.8-1.1,1.6-1
	c0.7,0.1,1.3,0.6,1.4,1.4C42.3,94.4,42.3,94.6,42.3,94.6z"/>
<path class="st0" d="M63.7,94c-1,0-1.9,0-2.9,0c0.1-0.8,0.7-1.2,1.6-1.2C63.2,92.8,63.6,93.2,63.7,94z"/>
</svg>
