<?xml version="1.0" encoding="utf-8"?>
<!-- Generator: Adobe Illustrator 23.0.5, SVG Export Plug-In . SVG Version: 6.00 Build 0)  -->
<svg version="1.1"
	 id="svg2" inkscape:version="0.48.2 r9819" sodipodi:docname="Likud_Logo.svg" xmlns:cc="http://creativecommons.org/ns#" xmlns:dc="http://purl.org/dc/elements/1.1/" xmlns:inkscape="http://www.inkscape.org/namespaces/inkscape" xmlns:rdf="http://www.w3.org/1999/02/22-rdf-syntax-ns#" xmlns:sodipodi="http://sodipodi.sourceforge.net/DTD/sodipodi-0.dtd" xmlns:svg="http://www.w3.org/2000/svg"
	 xmlns="http://www.w3.org/2000/svg" xmlns:xlink="http://www.w3.org/1999/xlink" x="0px" y="0px" viewBox="0 0 320.4 91.7"
	 style="enable-background:new 0 0 320.4 91.7;" xml:space="preserve">
<style type="text/css">
	.st0{fill:#FFFFFF;}
</style>
<sodipodi:namedview  bordercolor="#666666" borderopacity="1" fit-margin-bottom="0" fit-margin-left="0" fit-margin-right="0" fit-margin-top="0" gridtolerance="10" guidetolerance="10" id="namedview4" inkscape:bbox-nodes="true" inkscape:bbox-paths="true" inkscape:current-layer="g10" inkscape:cx="219.85112" inkscape:cy="10.892025" inkscape:guide-bbox="true" inkscape:pageopacity="0" inkscape:pageshadow="2" inkscape:snap-bbox="true" inkscape:snap-bbox-edge-midpoints="true" inkscape:snap-bbox-midpoints="true" inkscape:window-height="962" inkscape:window-maximized="1" inkscape:window-width="1280" inkscape:window-x="-8" inkscape:window-y="-8" inkscape:zoom="1.9893175" objecttolerance="10" pagecolor="#ffffff" showgrid="false" showguides="true">
	</sodipodi:namedview>
<g id="g10" transform="matrix(1.25,0,0,-1.25,-2.5585104,155.71355)" inkscape:groupmode="layer" inkscape:label="halikud">
	<g id="g3137" transform="matrix(2.2130542,0,0,2.2130542,-638.45733,-51.715521)">
		<path id="path34" inkscape:connector-curvature="0" class="st0" d="M362.5,71.3c0.4,0.3,1,0.4,1.7,0.4c7.4-0.2,8.3-2.8,17-2.8
			c6.9,0,11.4,2.5,14.4,4.3l-2.4,6.4c-3-1.8-5.8-3.6-11.1-3.8c-7-0.2-10.4,2.7-17.7,2.7c-6.8,0-9.8-2.3-10.9-3.3l5.3-15l12.4,0
			c1.1-3.1,2.3-6.8,2.3-6.8h-8.2c-0.1,0,2.4-6.9,2.4-6.9l5.8,0c4.5,0,7.4,3.7,7.4,6.9c0,0.6-0.1,1.2-0.3,1.8c0,0-3.2,9.3-3.2,9.4
			c-0.7,2.3-2.8,2.7-3.4,2.7H364L362.5,71.3L362.5,71.3z"/>
		<path id="path38" inkscape:connector-curvature="0" class="st0" d="M308.8,67.2c0,0,2.2-6.6,2.2-6.9c0-0.1-2.1,0-2.6,0l4.7-13.8
			h-7.6c0,0-4.6,13.8-4.6,13.8c0,0-9.2,0-9.2,0c-1.5,4.4-2.2,6.8-2.2,6.8H308.8L308.8,67.2z"/>
		<path id="path42" inkscape:connector-curvature="0" class="st0" d="M346.7,54c0.2-0.6,0.3-1.1,0.3-1.8c0-3.2-2.5-5.8-5.7-5.8
			l-11,0c0,0-2.5,6.9-2.4,6.9h11.3c0,0-1.3,3.8-2.3,6.8l-11.5,0c0,0-2.5,6.9-2.4,6.9h16.8c0.5,0,2.7-0.4,3.4-2.7
			C343.1,64.5,346.7,54,346.7,54"/>
		<path id="path46" inkscape:connector-curvature="0" class="st0" d="M378.4,67.2h17.5c0.5,0,2.5-0.4,3.2-2.7c0-0.1,6-17.5,6.1-17.9
			h-7.6c-1.9,6-2.3,7.2-4.6,13.7l-12.4,0C380.7,60.3,378.3,67.2,378.4,67.2"/>
		<path id="path50" inkscape:connector-curvature="0" class="st0" d="M393,46.6l-4,11.2h-7.4l3.8-11.2H393z"/>
		<path id="path54" inkscape:connector-curvature="0" sodipodi:nodetypes="csccccc" class="st0" d="M343.4,67.2h9.2
			c0.5,0,2.5-0.4,3.2-2.7c0-0.1,3.8-10.9,3.9-11.3h-7.6c-1.9,6-0.1,0.6-2.3,7.1l-4,0"/>
		<path id="path58" inkscape:connector-curvature="0" sodipodi:nodetypes="csccccc" class="st0" d="M310,67.2h9.7
			c0.5,0,2.5-0.4,3.2-2.7c0-0.1,6-17.5,6.1-17.9h-7.6c-1.9,6-2.3,7.2-4.6,13.7l-4.5,0"/>
	</g>
</g>
</svg>
