<?xml version="1.0" encoding="utf-8"?>
<!-- Generator: Adobe Illustrator 23.0.5, SVG Export Plug-In . SVG Version: 6.00 Build 0)  -->
<svg version="1.1" id="Слой_1" xmlns="http://www.w3.org/2000/svg" xmlns:xlink="http://www.w3.org/1999/xlink" x="0px" y="0px"
	 viewBox="0 0 731 287" style="enable-background:new 0 0 731 287;" xml:space="preserve">
<style type="text/css">
	.st0{fill:#059568;}
</style>
<g>
	<path class="st0" d="M170.3,278.3c5.3,0,10.5-1.5,15.8-5.3c-11.7,8.6-25.9,13.5-41.7,13.5c-53,0-80.8-44-114.3-44
		C12.8,243,3.4,256.5,0,265.5c10.5-29,30.1-50.4,57.9-50.4c8.6,0,16.5,2.3,24.4,6C103.8,180.9,15,124.5,15,73.4
		c0-21.4,11.3-39.1,27.1-49.6c-4.9,5.6-6.8,11.3-6.8,16.9c0,22.2,28.2,40.2,46.6,66.6c26.7,38.4,22.9,82,0.4,113.9
		C115.4,236.9,142.1,278.3,170.3,278.3z M124.8,53.8c-31.2,0-53.4-30.1-82.7-30.1L75.6,0.4c32.3,0,52.6,24.1,76.3,24.1
		c9,0,14.7-3.8,18-11.3C165.8,35.4,148.9,53.8,124.8,53.8z"/>
	<path class="st0" d="M401.6,156.1c0,59.4-47.8,107.5-106.8,107.5c-62.4,0-113.2-59-113.2-131.6c0,45.9,44,89.5,106.8,89.5
		c57.5,0,108.3-38.7,108.3-81.6c0-7.9-1.9-15-5.3-20.7C397.8,130.2,401.6,142.6,401.6,156.1z M367,105.3c-31.6,0-70.7,50-106.4,50
		c-25.6,0-47-17.7-53-41.7c2.6,9.8,9.4,16.5,20.3,16.5c29.3,0,56.8-45.5,102.7-45.5c25.9,0,48.5,13.9,60.9,34.6
		C385.8,110.6,377.5,105.3,367,105.3z M294.8,0.4c27.8,4.1,49.3,23.7,75.2,23.7c10.9,0,17.3-5.3,19.9-11.3
		c-3,17.3-20.7,44.4-50.4,44.4c-31.2,0-64.7-28.2-98.1-28.2c-11.7,0-23.7,5.6-31.2,15.8C230.9,17.3,261,0.4,294.8,0.4z"/>
	<path class="st0" d="M437.3,53.8c-18.4,0-33.8-17.7-35.7-40.6c3.4,8.3,8.6,11.3,15.4,11.3c18.8,0,47.4-24.1,71.4-24.1
		c21.8,0,39.1,20.7,39.1,45.9v145.5l-46.6-32V37.6C467.4,44.4,452,53.8,437.3,53.8z M573.4,259.9c-6.8,2.6-13.9,3.8-21.8,3.8
		c-46.6,0-68.8-44-101.2-44c-17.7,0-27.1,13.9-30.1,22.6c10.5-29,30.1-50,57.9-50.4C520.8,191.4,554.6,259.9,573.4,259.9z
		 M613.3,232.8l-39.9,27.1c28.2-24.4,39.9-68.1,39.9-106c0-77.5-43.6-122.2-68.4-122.2c-4.1,0-7.9,1.1-11.3,3.4L584,0.4
		c38.4,15.4,67.7,65.1,69.6,123.3C654.7,169.6,638.5,210.2,613.3,232.8z"/>
	<path class="st0" d="M687.8,242.2c0-12,9.8-21.8,21.4-21.8c12,0,21.8,9.8,21.8,21.8c0,11.7-9.8,21.4-21.8,21.4
		C697.5,263.6,687.8,253.9,687.8,242.2z"/>
</g>
</svg>
