<?xml version="1.0" encoding="utf-8"?>
<!-- Generator: Adobe Illustrator 23.0.5, SVG Export Plug-In . SVG Version: 6.00 Build 0)  -->
<svg version="1.1" id="Слой_1" xmlns="http://www.w3.org/2000/svg" xmlns:xlink="http://www.w3.org/1999/xlink" x="0px" y="0px"
	 viewBox="0 0 524 122" style="enable-background:new 0 0 524 122;" xml:space="preserve">
<style type="text/css">
	.st0{fill:none;stroke:#059568;stroke-width:0.9172;stroke-miterlimit:10;}
	.st1{fill:none;stroke:#069568;stroke-width:0.9172;stroke-miterlimit:10;}
	.st2{fill:none;stroke:#069569;stroke-width:0.9172;stroke-miterlimit:10;}
	.st3{fill:none;stroke:#079669;stroke-width:0.9172;stroke-miterlimit:10;}
	.st4{fill:none;stroke:#08966A;stroke-width:0.9172;stroke-miterlimit:10;}
	.st5{fill:none;stroke:#09976A;stroke-width:0.9172;stroke-miterlimit:10;}
	.st6{fill:none;stroke:#0A976B;stroke-width:0.9172;stroke-miterlimit:10;}
	.st7{fill:none;stroke:#0B976C;stroke-width:0.9172;stroke-miterlimit:10;}
	.st8{fill:none;stroke:#0C986C;stroke-width:0.9172;stroke-miterlimit:10;}
	.st9{fill:none;stroke:#0C986D;stroke-width:0.9172;stroke-miterlimit:10;}
	.st10{fill:none;stroke:#0D986D;stroke-width:0.9172;stroke-miterlimit:10;}
</style>
<g>
	<g>
		<circle class="st0" cx="197.8" cy="61" r="59.8"/>
		<circle class="st1" cx="188.6" cy="61" r="59.8"/>
		<circle class="st2" cx="179.5" cy="61" r="59.8"/>
		<circle class="st3" cx="170.4" cy="61" r="59.8"/>
		<circle class="st3" cx="161.2" cy="61" r="59.8"/>
		<circle class="st4" cx="152.1" cy="61" r="59.8"/>
		<circle class="st4" cx="142.9" cy="61" r="59.8"/>
		<circle class="st5" cx="133.8" cy="61" r="59.8"/>
		<circle class="st6" cx="124.6" cy="61" r="59.8"/>
		<circle class="st6" cx="115.5" cy="61" r="59.8"/>
		<circle class="st7" cx="106.3" cy="61" r="59.8"/>
		<circle class="st7" cx="97.2" cy="61" r="59.8"/>
		<circle class="st8" cx="88.1" cy="61" r="59.8"/>
		<circle class="st9" cx="78.9" cy="61" r="59.8"/>
		<circle class="st10" cx="69.8" cy="61" r="59.8"/>
	</g>
	<g>
		<circle class="st0" cx="326.2" cy="61" r="59.8"/>
		<circle class="st1" cx="317.1" cy="61" r="59.8"/>
		<circle class="st2" cx="307.9" cy="61" r="59.8"/>
		<circle class="st3" cx="298.8" cy="61" r="59.8"/>
		<circle class="st3" cx="289.6" cy="61" r="59.8"/>
		<circle class="st4" cx="280.5" cy="61" r="59.8"/>
		<circle class="st4" cx="271.3" cy="61" r="59.8"/>
		<circle class="st5" cx="262.2" cy="61" r="59.8"/>
		<circle class="st6" cx="253" cy="61" r="59.8"/>
		<circle class="st6" cx="243.9" cy="61" r="59.8"/>
		<circle class="st7" cx="234.8" cy="61" r="59.8"/>
		<circle class="st7" cx="225.6" cy="61" r="59.8"/>
		<circle class="st8" cx="216.5" cy="61" r="59.8"/>
		<circle class="st9" cx="207.3" cy="61" r="59.8"/>
		<circle class="st10" cx="198.2" cy="61" r="59.8"/>
	</g>
	<g>
		<circle class="st0" cx="454.2" cy="61" r="59.8"/>
		<circle class="st1" cx="445.1" cy="61" r="59.8"/>
		<circle class="st2" cx="435.9" cy="61" r="59.8"/>
		<circle class="st3" cx="426.8" cy="61" r="59.8"/>
		<circle class="st3" cx="417.7" cy="61" r="59.8"/>
		<circle class="st4" cx="408.5" cy="61" r="59.8"/>
		<circle class="st4" cx="399.4" cy="61" r="59.8"/>
		<circle class="st5" cx="390.2" cy="61" r="59.8"/>
		<circle class="st6" cx="381.1" cy="61" r="59.8"/>
		<circle class="st6" cx="371.9" cy="61" r="59.8"/>
		<circle class="st7" cx="362.8" cy="61" r="59.8"/>
		<circle class="st7" cx="353.6" cy="61" r="59.8"/>
		<circle class="st8" cx="344.5" cy="61" r="59.8"/>
		<circle class="st9" cx="335.4" cy="61" r="59.8"/>
		<circle class="st10" cx="326.2" cy="61" r="59.8"/>
	</g>
</g>
</svg>
